<svg version="1.1" xmlns="http://www.w3.org/2000/svg" xmlns:xlink="http://www.w3.org/1999/xlink" viewBox="0 0 172 172">
    <defs>
        <linearGradient x1="28.65592" y1="86.903" x2="143.17925" y2="86.903" gradientUnits="userSpaceOnUse" id="color-1">
            <stop offset="0" stop-color="#02589b"></stop>
            <stop offset="1" stop-color="#02589b"></stop>
        </linearGradient>
        <linearGradient x1="35.7545" y1="129.903" x2="139.67117" y2="129.903" gradientUnits="userSpaceOnUse" id="color-2">
            <stop offset="0" stop-color="#02589b"></stop>
            <stop offset="1" stop-color="#02589b"></stop>
        </linearGradient>
        <linearGradient x1="64.42117" y1="101.23633" x2="107.42117" y2="101.23633" gradientUnits="userSpaceOnUse" id="color-3">
            <stop offset="0" stop-color="#02589b"></stop>
            <stop offset="1" stop-color="#02589b"></stop>
        </linearGradient>
        <linearGradient x1="32.17117" y1="29.56967" x2="136.08783" y2="29.56967" gradientUnits="userSpaceOnUse" id="color-4">
            <stop offset="0" stop-color="#40c4ff"></stop>
            <stop offset="1" stop-color="#40c4ff"></stop>
        </linearGradient>
        <linearGradient x1="39.33783" y1="43.903" x2="132.5045" y2="43.903" gradientUnits="userSpaceOnUse" id="color-5">
            <stop offset="0" stop-color="#40c4ff"></stop>
            <stop offset="1" stop-color="#40c4ff"></stop>
        </linearGradient>
        <linearGradient x1="46.5045" y1="58.23633" x2="121.7545" y2="58.23633" gradientUnits="userSpaceOnUse" id="color-6">
            <stop offset="0" stop-color="#40c4ff"></stop>
            <stop offset="1" stop-color="#40c4ff"></stop>
        </linearGradient>
        <linearGradient x1="64.42117" y1="72.56967" x2="107.42117" y2="72.56967" gradientUnits="userSpaceOnUse" id="color-7">
            <stop offset="0" stop-color="#40c4ff"></stop>
            <stop offset="1" stop-color="#40c4ff"></stop>
        </linearGradient>
        <linearGradient x1="28.66308" y1="86.903" x2="143.18642" y2="86.903" gradientUnits="userSpaceOnUse" id="color-8">
            <stop offset="0" stop-color="#40c4ff"></stop>
            <stop offset="1" stop-color="#40c4ff"></stop>
        </linearGradient>
    </defs>
    <g transform="">
        <g fill="none" fill-rule="nonzero" stroke="none" stroke-width="1" stroke-linecap="butt" stroke-linejoin="miter" stroke-miterlimit="10" stroke-dasharray="" stroke-dashoffset="0" font-family="none" font-weight="none" font-size="none" text-anchor="none" style="mix-blend-mode: normal">
            <path d="M0,172v-172h172v172z" fill="none"></path>
            <g>
                <path d="M132.43283,15.10733c-1.94575,0.00358 -3.48658,1.55875 -3.57617,3.50092c-1.42975,30.831 -22.24533,44.41183 -45.72692,60.329c-24.7035,16.38658 -52.78967,34.8085 -54.32333,75.938c-0.07525,2.00667 1.58383,3.66217 3.59408,3.66217l7.17383,-0.00717c1.94575,-0.00358 3.49017,-1.56592 3.57258,-3.50808c1.42617,-33.70125 23.98325,-48.64733 47.8805,-64.2635c23.607,-15.65558 50.57875,-33.67258 52.16975,-71.97842c0.08242,-2.01025 -1.58383,-3.68008 -3.59767,-3.6765z" fill="url(#color-1)"></path>
                <path d="M136.22758,147.68708l-96.75,0.09317c-2.15,0.00358 -3.58333,-1.42975 -3.58692,-3.57975c-0.00358,-2.15 1.42975,-3.58333 3.57975,-3.58692l96.75,-0.09317c2.15,-0.00358 3.58333,1.42975 3.58692,3.57975c0.00358,2.15 -1.42975,3.58333 -3.57975,3.58692zM129.04658,133.36092l-86,0.08242c-2.15,0.00358 -3.58333,-1.42975 -3.58692,-3.57975c-0.00358,-2.15 1.42975,-3.58333 3.57975,-3.58692l86,-0.08242c2.15,-0.00358 3.58333,1.42975 3.58692,3.57975c0.00358,2.15 -1.42975,3.58333 -3.57975,3.58692zM121.86558,119.03475l-71.66667,0.06808c-2.15,0.00358 -3.58333,-1.42975 -3.58692,-3.57975c-0.00358,-2.15 1.42975,-3.58333 3.57975,-3.58692l71.66667,-0.06808c2.15,-0.00358 3.58333,1.42975 3.58692,3.57975c0.00358,2.15 -1.42975,3.58333 -3.57975,3.58692z" fill="url(#color-2)"></path>
                <path d="M103.93458,104.71933l-35.83333,0.03583c-2.15,0.00358 -3.58333,-1.42975 -3.58692,-3.57975c-0.00358,-2.15 1.42975,-3.58333 3.57975,-3.58692l35.83333,-0.03583c2.15,-0.00358 3.58333,1.42975 3.58692,3.57975c0.00358,2.15 -1.42975,3.58333 -3.57975,3.58692z" fill="url(#color-3)"></path>
                <path d="M132.53317,33.024l-96.75,0.09317c-2.15,0.00358 -3.58333,-1.42975 -3.58692,-3.57975c-0.00358,-2.15 1.42975,-3.58333 3.57975,-3.58692l96.75,-0.09317c2.15,-0.00358 3.58333,1.42975 3.58692,3.57975c0.00358,2.15 -1.42975,3.58333 -3.57975,3.58692z" fill="url(#color-4)"></path>
                <path d="M128.96417,47.36092l-86,0.08242c-2.15,0.00358 -3.58333,-1.42975 -3.58692,-3.57975c-0.00358,-2.15 1.42975,-3.58333 3.57975,-3.58692l86,-0.08242c2.15,-0.00358 3.58333,1.42975 3.58692,3.57975c0.00358,2.15 -1.42975,3.58333 -3.57975,3.58692z" fill="url(#color-5)"></path>
                <path d="M118.2285,61.705l-68.08333,0.0645c-2.15,0.00358 -3.58333,-1.42975 -3.58692,-3.57975c-0.00358,-2.15 1.42975,-3.58333 3.57975,-3.58692l68.08333,-0.0645c2.15,-0.00358 3.58333,1.42975 3.58692,3.57975c0,2.15 -1.42975,3.58333 -3.57975,3.58692z" fill="url(#color-6)"></path>
                <path d="M103.9095,76.05267l-35.83333,0.03583c-2.15,0.00358 -3.58333,-1.42975 -3.58692,-3.57975c-0.00358,-2.15 1.42975,-3.58333 3.57975,-3.58692l35.83333,-0.03583c2.15,-0.00358 3.58333,1.42975 3.58692,3.57975c0,2.15 -1.42975,3.58333 -3.57975,3.58692z" fill="url(#color-7)"></path>
                <path d="M139.74642,158.4335l-7.17383,0.00717c-1.94575,0.00358 -3.49375,-1.55875 -3.57975,-3.50092c-1.49067,-33.69767 -24.07642,-48.60075 -48.00233,-64.17392c-23.63925,-15.609 -50.64683,-33.57583 -52.3095,-71.87808c-0.086,-2.01025 1.57667,-3.68367 3.5905,-3.68367l7.16308,-0.00717c1.94575,-0.00358 3.49017,1.55158 3.58333,3.49375c1.48708,30.82742 22.33133,44.36883 45.84158,60.243c24.73575,16.34 52.85417,34.70458 54.47025,75.83408c0.07883,2.00667 -1.57667,3.66575 -3.58333,3.66575z" fill="url(#color-8)"></path>
            </g>
        </g>
    </g>
</svg>